<svg width="56" height="33" viewBox="0 0 56 33" fill="none" xmlns="http://www.w3.org/2000/svg">
<g clip-path="url(#clip0_136_338)">
<path d="M28.112 32.5084L31.1618 0.510254L27.7003 3.31271L28.112 32.5084Z" fill="#1D5A3F"/>
<path d="M28.1129 32.5084L31.1628 0.510254L33.9483 3.99798L28.1129 32.5084Z" fill="#1D8F3F"/>
<path d="M28.1129 32.5084L37.969 2.13647L33.9229 3.99285L28.1129 32.5084Z" fill="#1D5A3F"/>
<path d="M28.1129 32.5084L37.969 2.13647L39.8142 6.20208L28.1129 32.5084Z" fill="#1D8F3F"/>
<path d="M28.1131 32.5083L17.3878 2.479L15.6799 6.60598L28.1131 32.5083Z" fill="#1D5A3F"/>
<path d="M28.1131 32.5083L17.3878 2.479L21.4949 4.1973L28.1131 32.5083Z" fill="#1D8F3F"/>
<path d="M28.112 32.5087L24.1319 0.628174L21.4633 4.20795L28.112 32.5087Z" fill="#1D5A3F"/>
<path d="M28.1115 32.5087L24.1315 0.628174L27.6896 3.31301L28.1115 32.5087Z" fill="#1D8F3F"/>
<path d="M28.1129 32.5084L53.2843 15.9596L49.0603 14.5532L28.1129 32.5084Z" fill="#1D5A3F"/>
<path d="M28.1129 32.5083L53.2843 15.9595L51.8865 20.2092L28.1129 32.5083Z" fill="#1D8F3F"/>
<path d="M28.1129 32.5083L55.6226 22.5871L51.8763 20.1785L28.1129 32.5083Z" fill="#1D5A3F"/>
<path d="M28.1129 32.5085L55.6226 22.5874L53.2284 26.3564L28.1129 32.5085Z" fill="#1D8F3F"/>
<path d="M28.1129 32.5083L44.1551 5.38892L39.7837 6.1867L28.1129 32.5083Z" fill="#1D5A3F"/>
<path d="M28.1129 32.5083L44.1551 5.38892L44.9532 9.79205L28.1129 32.5083Z" fill="#1D8F3F"/>
<path d="M28.1129 32.5085L49.3653 10.0837L44.9278 9.77173L28.1129 32.5085Z" fill="#1D5A3F"/>
<path d="M28.1129 32.508L49.3653 10.0833L49.0552 14.5478L28.1129 32.508Z" fill="#1D8F3F"/>
<path d="M28.1125 32.5082L6.23492 10.8301L6.69748 15.2792L28.1125 32.5082Z" fill="#1D5A3F"/>
<path d="M28.1125 32.5082L6.23492 10.8301L10.6572 10.3647L28.1125 32.5082Z" fill="#1D8F3F"/>
<path d="M28.1123 32.5083L11.2771 5.96167L10.6367 10.3904L28.1123 32.5083Z" fill="#1D5A3F"/>
<path d="M28.1123 32.5081L11.2771 5.96143L15.6791 6.60579L28.1123 32.5081Z" fill="#1D8F3F"/>
<path d="M28.1128 32.5085L0.409973 23.5488L2.93118 27.2309L28.1128 32.5085Z" fill="#1D5A3F"/>
<path d="M28.1128 32.5084L0.409973 23.5487L4.06979 21.0071L28.1128 32.5084Z" fill="#1D8F3F"/>
<path d="M28.1121 32.5081L2.51874 16.8389L4.064 21.0374L28.1121 32.5081Z" fill="#1D5A3F"/>
<path d="M28.1121 32.5085L2.51874 16.8393L6.69195 15.2898L28.1121 32.5085Z" fill="#1D8F3F"/>
</g>
<defs>
<clipPath id="clip0_136_338">
<rect width="55.2125" height="31.9981" fill="white" transform="translate(0.410034 0.510254)"/>
</clipPath>
</defs>
</svg>
