<svg width="313" height="351" viewBox="0 0 313 351" fill="none" xmlns="http://www.w3.org/2000/svg">
<g clip-path="url(#clip0_136_302)">
<path d="M103.815 220.764C103.815 220.764 97.2644 257.314 143.509 261.956C143.509 261.956 168.813 266.602 197.787 249.489C197.787 249.489 176.218 223.624 170.504 203.797C170.504 203.797 197.185 240.647 209.092 240.772C209.092 240.772 237.164 224.343 246.406 200.295C246.406 200.295 222.194 177.444 218.02 163.137C218.02 163.137 237.51 183.548 253.494 186.092C253.494 186.092 263.653 157.717 263.938 121.141C263.938 121.141 250.177 110.626 247.504 106.179C247.504 106.179 257.907 110.478 265 110.52C265 110.52 269.85 83.2086 274.815 72.4828C257.33 73.1851 239.82 72.9532 222.36 71.7881C222.36 71.7881 226.701 86.5572 229.483 89.5057C229.483 89.5057 224.185 89.374 210.236 71.8691C210.236 71.8691 176.958 73.7174 169.126 73.1994C161.294 72.6814 166.064 90.6384 177.296 113.698C177.296 113.698 153.214 72.7865 148.053 76.9114C144.174 80.0078 138.904 81.704 134.463 83.7884C125.681 87.8575 117.178 92.5017 109.008 97.6908C106.57 99.2528 103.876 100.417 101.642 102.297C98.726 104.746 99.7899 107.216 101.222 110.405C104.178 117.143 124.572 146.332 124.572 146.332C124.572 146.332 101.878 123.028 92.3331 109.818C92.2296 109.676 84.6858 118.535 84.3044 119.064C78.3705 127.248 73.9643 136.437 71.298 146.188C65.1068 168.814 66.2456 207.27 90.9699 219.22C93.2909 220.391 95.8023 221.137 98.3857 221.423C98.9994 221.475 103.652 221.703 103.815 220.764Z" fill="#4E933A"/>
<path d="M104.166 224.346C92.9156 235.04 81.2233 245.501 72.8488 258.741C68.2309 266.042 63.7702 274.121 61.3994 282.502C61.3994 282.502 59.3878 290.449 54.448 287.993C49.5083 285.537 55.3386 274.224 55.3386 274.224C72.4518 239.398 100.089 220.835 100.089 220.835C100.089 220.835 231.144 98.0362 273.842 74.2652C273.842 74.2652 166.116 160.782 112.391 216.22C109.693 219.013 106.928 221.682 104.166 224.346Z" fill="#1D5A3F"/>
</g>
<defs>
<clipPath id="clip0_136_302">
<rect width="181.75" height="299.227" fill="white" transform="translate(157.778 0.015625) rotate(31.7757)"/>
</clipPath>
</defs>
</svg>
