<svg width="222" height="234" viewBox="0 0 222 234" fill="none" xmlns="http://www.w3.org/2000/svg">
<g clip-path="url(#clip0_136_249)">
<path d="M170.34 194.108C170.485 193.996 170.58 193.83 170.604 193.648C170.627 193.465 170.577 193.281 170.465 193.136L100.541 102.631C100.488 102.551 100.419 102.484 100.339 102.432C100.26 102.38 100.17 102.345 100.076 102.329C99.9816 102.314 99.8854 102.318 99.793 102.341C99.7005 102.364 99.6139 102.407 99.5385 102.465C99.463 102.523 99.4004 102.596 99.3546 102.68C99.3087 102.763 99.2806 102.855 99.2719 102.95C99.2632 103.045 99.2742 103.141 99.3042 103.232C99.3342 103.322 99.3825 103.405 99.4461 103.476L169.37 193.981C169.482 194.126 169.647 194.221 169.829 194.245C170.011 194.269 170.194 194.22 170.34 194.108Z" fill="#F7DCC6" fill-opacity="0.6"/>
<path d="M70.8558 76.4209C84.3523 93.89 99.3186 101.551 100.657 103.914C101.995 106.277 95.0731 85.607 81.5766 68.138C68.08 50.669 51.7754 40.6452 51.7754 40.6452C51.7754 40.6452 57.3569 58.949 70.8558 76.4209Z" fill="#F7DCC6" fill-opacity="0.6"/>
<path d="M70.8558 76.4209C57.3569 58.949 51.7754 40.6452 51.7754 40.6452L100.337 103.5C97.7695 100.728 83.6519 92.9833 70.8558 76.4209Z" fill="#FFF3E8"/>
<path d="M100.656 103.914L100.798 104.098C100.772 104.095 100.727 104.036 100.656 103.914Z" fill="#F7DCC6" fill-opacity="0.6"/>
<path d="M68.308 98.5827C87.6618 109.212 104.442 110.257 106.611 111.889C108.781 113.52 94.1835 97.3374 74.8297 86.7082C55.4758 76.0791 36.5288 73.4053 36.5288 73.4053C36.5288 73.4053 48.9565 87.9565 68.308 98.5827Z" fill="#F7DCC6" fill-opacity="0.6"/>
<path d="M68.308 98.5827C48.9565 87.9565 36.5288 73.4053 36.5288 73.4053L106.154 111.637C102.69 110.125 86.664 108.666 68.308 98.5827Z" fill="#FFF3E8"/>
<path d="M106.611 111.889L106.812 111.999C106.793 112.009 106.724 111.974 106.611 111.889Z" fill="#F7DCC6" fill-opacity="0.6"/>
<path d="M79.989 119.596C100.303 128.266 117.099 127.634 119.416 129.044C121.733 130.454 105.62 115.808 85.3032 107.141C64.9866 98.474 45.8761 97.6929 45.8761 97.6929C45.8761 97.6929 59.6793 110.938 79.989 119.596Z" fill="#F7DCC6" fill-opacity="0.6"/>
<path d="M79.989 119.596C59.6725 110.929 45.8761 97.6929 45.8761 97.6929L118.949 128.852C115.341 127.676 99.2408 127.807 79.989 119.596Z" fill="#FFF3E8"/>
<path d="M119.416 129.044L119.631 129.135C119.602 129.134 119.538 129.118 119.416 129.044Z" fill="#F7DCC6" fill-opacity="0.6"/>
<path d="M90.5473 138.398C111.725 144.639 128.342 142.071 130.805 143.203C133.269 144.336 115.551 131.647 94.3735 125.406C73.1958 119.166 54.1178 120.604 54.1178 120.604C54.1178 120.604 69.3697 132.158 90.5473 138.398Z" fill="#F7DCC6" fill-opacity="0.6"/>
<path d="M90.5473 138.398C69.3697 132.158 54.1178 120.604 54.1178 120.604L130.309 143.053C126.603 142.313 110.627 144.315 90.5473 138.398Z" fill="#F7DCC6" fill-opacity="0.6"/>
<path d="M130.808 143.201L131.031 143.266C131.003 143.284 130.937 143.259 130.808 143.201Z" fill="#F7DCC6" fill-opacity="0.6"/>
<path d="M100.853 155.91C120.661 157.291 134.788 151.118 137.169 151.672C139.551 152.226 121.598 143.785 101.816 142.408C82.0335 141.03 65.4989 146.646 65.4989 146.646C65.4989 146.646 81.057 154.515 100.853 155.91Z" fill="#F7DCC6" fill-opacity="0.6"/>
<path d="M100.853 155.91C81.0569 154.515 65.4875 146.631 65.4875 146.631L136.703 151.638C133.313 151.732 119.622 157.231 100.853 155.91Z" fill="#FFF3E8"/>
<path d="M137.17 151.672L137.378 151.685C137.364 151.705 137.296 151.701 137.17 151.672Z" fill="#F7DCC6" fill-opacity="0.6"/>
<path d="M108.388 171.448C127.827 167.463 139.784 157.705 142.226 157.598C144.669 157.491 125.107 154.192 105.674 158.195C86.24 162.199 71.8372 172.048 71.8372 172.048C71.8372 172.048 88.9486 175.432 108.388 171.448Z" fill="#F7DCC6" fill-opacity="0.6"/>
<path d="M108.388 171.448C88.9491 175.433 71.8355 172.045 71.8355 172.045L141.768 157.691C138.522 158.704 126.82 167.67 108.388 171.448Z" fill="#F7DCC6" fill-opacity="0.6"/>
<path d="M142.228 157.599L142.433 157.557C142.422 157.579 142.358 157.592 142.228 157.599Z" fill="#F7DCC6" fill-opacity="0.6"/>
<path d="M124.148 179.505C136.757 171.567 142.812 161.927 144.485 161.188C146.158 160.448 131.759 163.668 119.165 171.594C111.42 176.534 104.548 182.724 98.8307 189.914C107.787 187.868 116.342 184.351 124.148 179.505Z" fill="#F7DCC6" fill-opacity="0.6"/>
<path d="M124.148 179.504C116.345 184.353 107.792 187.873 98.8375 189.923L144.188 161.374C142.156 162.916 136.091 171.973 124.148 179.504Z" fill="#F7DCC6" fill-opacity="0.6"/>
<path d="M144.477 161.178L144.604 161.08C144.604 161.08 144.567 161.137 144.477 161.178Z" fill="#F7DCC6" fill-opacity="0.6"/>
<path d="M138.315 185.191C144.723 174.384 144.868 164.432 145.867 163.239C146.866 162.045 136.664 169.628 130.276 180.439C126.366 187.201 123.802 194.657 122.725 202.394C128.983 197.719 134.276 191.878 138.315 185.191Z" fill="#F7DCC6" fill-opacity="0.6"/>
<path d="M138.316 185.191C134.276 191.876 128.982 197.717 122.724 202.391L145.712 163.49C144.828 165.457 144.372 174.941 138.316 185.191Z" fill="#F7DCC6" fill-opacity="0.6"/>
<path d="M145.867 163.238L145.934 163.126C145.934 163.126 145.908 163.183 145.867 163.238Z" fill="#F7DCC6" fill-opacity="0.6"/>
<path d="M150.754 181.049C151.034 173.176 148.136 167.642 148.338 166.69C148.539 165.738 145.18 172.967 144.9 180.84C144.772 185.738 145.593 190.615 147.318 195.201C149.366 190.75 150.532 185.944 150.754 181.049Z" fill="#F7DCC6" fill-opacity="0.6"/>
<path d="M150.753 181.049C150.532 185.944 149.365 190.75 147.318 195.201L148.329 166.874C148.438 168.234 151.021 173.584 150.753 181.049Z" fill="#F7DCC6" fill-opacity="0.6"/>
<path d="M148.337 166.69L148.34 166.609C148.34 166.609 148.346 166.641 148.337 166.69Z" fill="#F7DCC6" fill-opacity="0.6"/>
<path d="M104.132 70.905C109.532 92.3151 106.308 108.815 107.339 111.326C108.37 113.838 96.3957 95.6282 90.996 74.2181C85.5963 52.808 87.7916 33.7996 87.7916 33.7996C87.7916 33.7996 98.7259 49.5047 104.132 70.905Z" fill="#FFF3E8"/>
<path d="M104.132 70.9042C98.7344 49.4971 87.7913 33.7988 87.7913 33.7988L107.202 110.827C106.613 107.093 109.247 91.2178 104.132 70.9042Z" fill="#F7DCC6" fill-opacity="0.6"/>
<path d="M107.33 111.334L107.386 111.557C107.41 111.533 107.384 111.464 107.33 111.334Z" fill="#F7DCC6" fill-opacity="0.6"/>
<path d="M121.511 87.5159C124.769 109.362 119.922 125.453 120.698 128.053C121.475 130.653 111.373 111.363 108.115 89.5163C104.857 67.6699 108.928 48.9788 108.928 48.9788C108.928 48.9788 118.259 65.6783 121.511 87.5159Z" fill="#FFF3E8"/>
<path d="M121.511 87.5161C118.252 65.6697 108.927 48.979 108.927 48.979L120.633 127.551C120.402 123.765 124.593 108.219 121.511 87.5161Z" fill="#F7DCC6" fill-opacity="0.6"/>
<path d="M120.698 128.054L120.732 128.284C120.741 128.254 120.744 128.186 120.698 128.054Z" fill="#F7DCC6" fill-opacity="0.6"/>
<path d="M137.037 102.48C137.729 124.547 131.05 139.978 131.524 142.647C131.999 145.317 124.192 124.97 123.499 102.903C122.807 80.8359 129.014 62.7386 129.014 62.7386C129.014 62.7386 136.344 80.413 137.037 102.48Z" fill="#FFF3E8"/>
<path d="M137.036 102.48C136.343 80.4132 129.013 62.7388 129.013 62.7388L131.512 142.123C131.725 138.354 137.693 123.403 137.036 102.48Z" fill="#F7DCC6" fill-opacity="0.6"/>
<path d="M131.521 142.65L131.528 142.883C131.546 142.864 131.554 142.784 131.521 142.65Z" fill="#F7DCC6" fill-opacity="0.6"/>
<path d="M151.368 116.882C147.704 136.397 138.165 148.508 138.1 150.953C138.035 153.397 134.399 133.895 138.051 114.389C141.704 94.8825 151.319 80.3176 151.319 80.3176C151.319 80.3176 155.029 97.3638 151.368 116.882Z" fill="#FFF3E8"/>
<path d="M151.368 116.883C155.015 97.3757 151.319 80.3182 151.319 80.3182L138.197 150.485C139.155 147.219 147.921 135.368 151.368 116.883Z" fill="#F7DCC6" fill-opacity="0.6"/>
<path d="M138.112 150.944L138.072 151.148C138.095 151.14 138.108 151.073 138.112 150.944Z" fill="#F7DCC6" fill-opacity="0.6"/>
<path d="M164.513 128.086C155.751 145.89 143.291 154.997 142.571 157.333C141.851 159.67 143.596 139.909 152.375 122.115C161.155 104.321 174.32 92.8709 174.32 92.8709C174.32 92.8709 173.276 110.282 164.513 128.086Z" fill="#F7DCC6" fill-opacity="0.6"/>
<path d="M164.512 128.086C173.274 110.283 174.316 92.868 174.316 92.868L142.777 156.911C144.574 154.028 156.2 144.97 164.512 128.086Z" fill="#F7DCC6" fill-opacity="0.6"/>
<path d="M142.57 157.334L142.477 157.522C142.501 157.518 142.533 157.456 142.57 157.334Z" fill="#F7DCC6" fill-opacity="0.6"/>
<path d="M168.331 145.369C157.468 155.565 146.611 158.991 145.473 160.423C144.336 161.855 151.081 148.754 161.941 138.559C168.675 132.312 176.4 127.225 184.801 123.508C180.557 131.655 174.992 139.042 168.331 145.369Z" fill="#F7DCC6" fill-opacity="0.6"/>
<path d="M168.33 145.369C174.99 139.042 180.556 131.655 184.799 123.508L145.721 160.175C147.733 158.607 158.027 155.024 168.33 145.369Z" fill="#F7DCC6" fill-opacity="0.6"/>
<path d="M145.466 160.414L145.342 160.51C145.342 160.51 145.406 160.489 145.466 160.414Z" fill="#F7DCC6" fill-opacity="0.6"/>
<path d="M170.258 160.513C158.191 163.979 148.516 161.615 147.112 162.278C145.708 162.941 155.615 154.987 167.691 151.533C175.22 149.457 183.079 148.86 190.836 149.773C184.733 154.647 177.745 158.293 170.258 160.513Z" fill="#F7DCC6" fill-opacity="0.6"/>
<path d="M170.257 160.513C177.745 158.292 184.733 154.643 190.835 149.767L147.394 162.195C149.518 161.833 158.809 163.786 170.257 160.513Z" fill="#F7DCC6" fill-opacity="0.6"/>
<path d="M147.111 162.278L146.986 162.314C146.986 162.314 147.036 162.313 147.111 162.278Z" fill="#F7DCC6" fill-opacity="0.6"/>
<path d="M163.112 171.501C155.424 169.785 150.8 165.584 149.831 165.536C148.862 165.489 156.699 164.068 164.387 165.783C169.16 166.895 173.672 168.92 177.673 171.749C172.849 172.605 167.904 172.521 163.112 171.501Z" fill="#F7DCC6" fill-opacity="0.6"/>
<path d="M163.112 171.501C167.904 172.521 172.849 172.605 177.673 171.749L150.008 165.578C151.296 166.026 155.821 169.876 163.112 171.501Z" fill="#F7DCC6" fill-opacity="0.6"/>
<path d="M149.828 165.538L149.746 165.523C149.746 165.523 149.776 165.537 149.828 165.538Z" fill="#F7DCC6" fill-opacity="0.6"/>
</g>
<defs>
<clipPath id="clip0_136_249">
<rect width="129.494" height="193.929" fill="white" transform="translate(0.770142 80.0513) rotate(-37.6897)"/>
</clipPath>
</defs>
</svg>
