<svg width="22" height="22" viewBox="0 0 22 22" fill="none" xmlns="http://www.w3.org/2000/svg">
<path d="M15.008 0.015625H6.08879C5.28909 0.015625 4.49722 0.176621 3.75841 0.48941C3.0196 0.802199 2.34832 1.26066 1.78291 1.8386C1.2175 2.41655 0.769025 3.10265 0.46311 3.85774C0.157196 4.61283 -0.000169148 5.42212 1.36435e-07 6.23937V15.353C1.00267e-07 17.0034 0.641454 18.5863 1.78329 19.7534C2.92512 20.9206 4.47382 21.5764 6.08879 21.5768H15.008C16.6231 21.5764 18.1719 20.9206 19.314 19.7535C20.456 18.5864 21.0978 17.0036 21.0981 15.353V6.23937C21.0981 4.58873 20.4565 3.00568 19.3144 1.83851C18.1722 0.671327 16.6232 0.015625 15.008 0.015625ZM19.1557 15.5137C19.1557 16.0562 19.0512 16.5933 18.848 17.0945C18.6449 17.5957 18.3472 18.051 17.9718 18.4346C17.5965 18.8182 17.1509 19.1224 16.6605 19.33C16.1701 19.5376 15.6445 19.6445 15.1137 19.6445H5.98439C4.91238 19.6445 3.88428 19.2092 3.12626 18.4346C2.36823 17.6599 1.94238 16.6093 1.94238 15.5137V6.18534C1.94238 5.08981 2.36823 4.03915 3.12626 3.26449C3.88428 2.48983 4.91238 2.05464 5.98439 2.05464H15.1124C15.6433 2.05447 16.1691 2.16118 16.6596 2.3687C17.1502 2.57621 17.5959 2.88045 17.9714 3.26404C18.3469 3.64763 18.6447 4.10304 18.8479 4.60429C19.0511 5.10554 19.1557 5.64278 19.1557 6.18534V15.5137Z" fill="white"/>
<path d="M10.5484 5.25488C9.4658 5.25488 8.40746 5.58297 7.50727 6.19766C6.60707 6.81235 5.90546 7.68602 5.49115 8.70821C5.07683 9.7304 4.96843 10.8552 5.17965 11.9404C5.39086 13.0255 5.91221 14.0223 6.67776 14.8046C7.44331 15.587 8.41868 16.1198 9.48053 16.3356C10.5424 16.5515 11.643 16.4407 12.6433 16.0173C13.6435 15.5939 14.4984 14.8769 15.0999 13.9569C15.7014 13.037 16.0224 11.9554 16.0224 10.849C16.0221 9.36546 15.4453 7.94275 14.4188 6.89372C13.3923 5.8447 12.0001 5.25523 10.5484 5.25488ZM10.5484 14.4752C9.84665 14.4752 9.16061 14.2626 8.57709 13.8641C7.99356 13.4657 7.53876 12.8993 7.27019 12.2367C7.00163 11.5741 6.93136 10.845 7.06827 10.1416C7.20518 9.43814 7.54313 8.79199 8.03938 8.28485C8.53563 7.77771 9.16788 7.43237 9.8562 7.29245C10.5445 7.15253 11.258 7.22432 11.9063 7.49878C12.5547 7.77324 13.1089 8.23803 13.4988 8.83437C13.8887 9.4307 14.0968 10.1318 14.0968 10.849C14.097 11.3253 14.0053 11.7969 13.827 12.2369C13.6488 12.6769 13.3874 13.0768 13.0579 13.4135C12.7284 13.7503 12.3371 14.0174 11.9065 14.1996C11.476 14.3817 11.0145 14.4754 10.5484 14.4752Z" fill="white"/>
<path d="M16.2054 3.73926C15.9529 3.739 15.706 3.81529 15.496 3.95848C15.286 4.10167 15.1222 4.3053 15.0255 4.54363C14.9287 4.78196 14.9034 5.04427 14.9526 5.29735C15.0018 5.55043 15.1233 5.78289 15.3018 5.96534C15.4804 6.14779 15.7079 6.27202 15.9555 6.32229C16.2031 6.37257 16.4598 6.34664 16.693 6.24778C16.9262 6.14892 17.1255 5.98157 17.2656 5.76692C17.4057 5.55227 17.4804 5.29997 17.4801 5.04195C17.4801 4.69645 17.3458 4.36512 17.1068 4.12081C16.8677 3.87651 16.5435 3.73926 16.2054 3.73926Z" fill="white"/>
</svg>
