<svg width="104" height="159" viewBox="0 0 104 159" fill="none" xmlns="http://www.w3.org/2000/svg">
<g clip-path="url(#clip0_136_305)">
<path d="M28.972 23.547C31.0129 15.627 28.7617 6.68464 23.2246 0.714844C22.293 4.77968 22.3298 9.00525 23.3321 13.0534C24.3344 17.1015 26.2744 20.8598 28.9967 24.0274" fill="#8FA858"/>
<path d="M30.032 27.9116C34.102 26.0276 37.2932 22.6632 38.9499 18.5093C40.5972 14.2941 40.609 9.61894 38.9829 5.39551C33.6643 11.6199 30.6958 19.8889 30.032 27.9116Z" fill="#8FA858"/>
<path d="M29.7924 27.7922C25.6695 19.5807 17.4565 13.6396 8.5097 12.3792C11.9524 21.1655 20.4622 27.669 29.7924 27.7922Z" fill="#8FA858"/>
<path d="M31.5694 33.0845C36.3037 32.0867 40.5849 29.5855 43.7692 25.9569C47.0236 22.2364 48.9133 17.526 49.1291 12.5967C41.1017 17.1746 34.5998 24.5075 31.5694 33.0845Z" fill="#8FA858"/>
<path d="M33.2225 39.5309C44.0535 38.3197 53.7961 30.1164 57.2223 18.7393C47.4096 23.1324 38.838 30.3463 33.2225 39.5309Z" fill="#8FA858"/>
<path d="M34.7931 45.2949C40.5025 44.8382 46.0241 43.051 50.9122 40.0777C55.8002 37.1043 59.9177 33.028 62.9323 28.178C51.943 30.7092 42.0715 36.7141 34.7931 45.2949Z" fill="#8FA858"/>
<path d="M36.4261 50.3576C45.4472 41.5795 58.6901 37.5722 71.0136 40.4257C62.7925 50.5095 48.3662 54.8 36.4261 50.3576Z" fill="#8FA858"/>
<path d="M38.5867 62.3752C43.8548 57.495 50.0878 53.7637 56.887 51.42C63.6863 49.0763 70.9019 48.1719 78.0723 48.7646C76.9838 52.5049 74.2792 55.4159 71.1334 57.2759C67.9875 59.1358 64.4129 60.0513 60.826 60.7534C53.509 62.2093 46.0386 62.7541 38.5867 62.3752Z" fill="#8FA858"/>
<path d="M42.6152 66.1118C50.0943 64.3463 57.6393 62.5726 65.3369 62.1743C73.0344 61.7761 81.0041 62.8354 87.4936 66.4033C73.3601 72.8904 55.8087 72.7631 42.6152 66.1118Z" fill="#8FA858"/>
<path d="M46.0628 77.7798C60.4932 71.3214 78.1106 71.2105 92.3348 77.4801C86.4719 82.5753 77.7766 84.2915 69.7327 83.6716C61.6888 83.0516 54.0902 80.3787 46.0628 77.7798Z" fill="#8FA858"/>
<path d="M97.2607 89.5594C90.3447 93.6424 82.4114 95.6975 74.3741 95.4881C66.4503 95.308 58.751 92.8326 52.2173 88.3646C67.0678 84.7345 82.6253 85.1472 97.2607 89.5594Z" fill="#8FA858"/>
<path d="M57.2469 101.979C63.3445 99.0531 70.0351 97.5596 76.8035 97.6137C83.572 97.6678 90.2376 99.2681 96.2872 102.291C91.1377 106.841 83.8771 108.269 77.0701 107.662C70.2631 107.054 63.7447 104.652 57.2469 101.979Z" fill="#8FA858"/>
<path d="M62.6897 112.408C69.3622 109.868 76.5138 108.819 83.6384 109.336C90.7629 109.852 97.6865 111.921 103.919 115.397C97.9245 119.31 90.3795 120.127 83.3045 119.117C76.2295 118.107 69.5421 115.414 62.6897 112.408Z" fill="#8FA858"/>
<path d="M69.3073 123.407C80.7485 120.094 93.711 122.135 103.338 128.745C100.666 130.798 97.0053 131.126 93.5915 131.036C85.0075 130.822 76.5224 128.375 69.3073 123.407Z" fill="#8FA858"/>
<path d="M31.4834 35.1333C28.2193 31.8107 24.3064 29.1892 19.9859 27.4302C15.6654 25.6712 11.0289 24.8121 6.36224 24.9058C7.67334 28.3465 10.6171 30.9372 13.8908 32.5138C17.1644 34.0904 20.7637 34.7638 24.3301 35.3427C26.4988 35.6958 28.7994 36.0037 31.4834 35.1333Z" fill="#8FA858"/>
<path d="M33.5481 43.0822C30.1521 40.2624 26.2044 38.1767 21.9557 36.9574C17.707 35.7381 13.2501 35.412 8.86804 35.9998C15.3823 42.3186 24.9764 45.1433 33.5481 43.0822Z" fill="#8FA858"/>
<path d="M34.9428 47.7751C24.9458 43.871 13.8165 43.9888 3.90515 48.1035C13.5611 53.1331 25.6579 52.9032 34.9428 47.7751Z" fill="#8FA858"/>
<path d="M37.3459 56.1835C26.6801 52.8079 15.2178 52.8625 4.5849 56.3395C9.60038 59.6792 15.5138 61.4283 21.5467 61.3568C27.5127 61.2664 33.4167 59.3121 37.3459 56.1835Z" fill="#8FA858"/>
<path d="M40.7998 65.3723C33.9516 64.4403 27.0663 63.5123 20.185 63.771C13.3038 64.0297 6.29479 65.5529 0.431946 69.2071C6.55454 72.4917 13.8316 72.9721 20.6344 71.8594C27.4373 70.7467 33.931 68.1601 40.7998 65.3723Z" fill="#8FA858"/>
<path d="M44.9616 75.6367C30.4525 72.2021 15.2109 73.6308 1.6004 79.7014C15.8658 83.8482 31.5784 82.5672 44.9616 75.6367Z" fill="#8FA858"/>
<path d="M48.4238 83.6677C40.2933 83.6677 32.1175 83.6677 24.0984 85.0924C16.0792 86.5171 8.20848 89.3912 1.91272 94.6096C18.176 95.7943 34.4122 91.9747 48.4238 83.6677Z" fill="#8FA858"/>
<path d="M52.3823 93.5622C36.076 91.5586 19.0523 97.1917 7.0545 108.561C23.2165 110.076 39.8732 104.599 52.3823 93.5622Z" fill="#8FA858"/>
<path d="M57.0293 103.006C42.2403 102.123 27.2368 108.815 17.8612 120.472C25.2542 120.455 32.5612 118.891 39.3086 115.882C46.056 112.874 52.0933 108.487 57.0293 103.006Z" fill="#8FA858"/>
<path d="M62.1776 111.357C48.3492 112.822 35.2546 120.287 26.8067 131.52C33.8056 130.866 40.583 128.729 46.6837 125.251C52.7845 121.773 58.0673 117.036 62.1776 111.357Z" fill="#8FA858"/>
<path d="M67.3939 120.829C54.9013 121.909 43.1921 129.718 37.2262 140.947C43.4757 140.149 49.4536 137.917 54.6888 134.426C59.924 130.934 64.2733 126.28 67.3939 120.829Z" fill="#8FA858"/>
<path d="M55.7918 149.61C60.7755 147.937 64.9829 144.524 67.6371 140.003C70.3088 135.415 71.2502 130.029 70.2923 124.812C66.8125 126.212 64.5201 129.582 62.5741 132.83C59.4777 137.975 56.5752 143.464 55.7918 149.61Z" fill="#8FA858"/>
<path d="M93.035 158.191C93.2071 158.177 93.3708 158.111 93.5051 158.003C93.6859 157.856 93.8013 157.645 93.8261 157.414C93.8508 157.183 93.7828 156.952 93.637 156.771C62.197 117.875 40.3455 72.1841 29.8342 23.362C29.8113 23.2486 29.7657 23.1409 29.7003 23.0452C29.6349 22.9496 29.5509 22.868 29.4533 22.8053C29.3557 22.7425 29.2464 22.6999 29.132 22.6798C29.0175 22.6598 28.9002 22.6628 28.787 22.6887C28.674 22.7125 28.5669 22.7584 28.4718 22.8235C28.3767 22.8887 28.2954 22.9719 28.2326 23.0684C28.1698 23.1649 28.1267 23.2728 28.1058 23.3858C28.0849 23.4989 28.0866 23.615 28.1108 23.7274C38.6804 72.8181 60.6519 118.76 92.2641 157.871C92.3558 157.984 92.4743 158.073 92.6089 158.128C92.7435 158.184 92.8899 158.206 93.035 158.191Z" fill="#1D5A3F"/>
<path d="M54.6295 78.6707C54.2799 78.6577 53.937 78.5709 53.6235 78.4162C53.4687 78.3367 53.3421 78.2118 53.261 78.0583C53.1799 77.9048 53.1481 77.7302 53.17 77.5581C53.2731 77.0736 53.8627 76.9053 54.3492 76.8232C60.3886 75.8639 66.5046 75.4667 72.618 75.6366C73.6843 75.6117 74.748 75.7501 75.7721 76.0472C76.2834 76.2041 76.7549 76.4686 77.1547 76.8228C77.5544 77.177 77.8731 77.6126 78.0892 78.1C79.6559 82.2058 73.9085 80.8057 71.9954 80.5922L60.9624 79.3605L54.6295 78.6707Z" fill="#8FA858"/>
<path d="M19.502 58.54C19.0678 58.5373 18.6417 58.4227 18.2651 58.2074C18.0815 58.0943 17.944 57.9201 17.8768 57.7158C17.8097 57.5114 17.8172 57.29 17.8982 57.0907C18.0125 56.944 18.1562 56.8227 18.3202 56.7343C18.4841 56.646 18.6648 56.5925 18.8506 56.5774C22.7636 55.7614 26.7786 55.5427 30.7577 55.9287C31.8791 56.0355 33.6767 56.0026 34.6332 56.5815C32.6295 57.764 29.529 58.0883 27.2449 58.384C24.6771 58.7129 22.0811 58.7652 19.502 58.54Z" fill="#8FA858"/>
<path d="M50.9435 28.831C51.5785 28.0878 52.1804 26.9916 51.5867 26.2115C51.401 26.0026 51.1615 25.8482 50.8941 25.765C50.6267 25.6818 50.3416 25.6729 50.0695 25.7393C49.5266 25.8802 49.0167 26.1257 48.5687 26.4619C47.0638 27.4514 36.6121 35.3591 38.6365 36.4554C39.9394 37.1657 44.2025 34.3696 45.3116 33.6799C47.4238 32.3557 49.3226 30.7209 50.9435 28.831Z" fill="#8FA858"/>
<path d="M40.504 123.958C40.3893 123.997 40.2654 124.002 40.148 123.971C40.0307 123.941 39.9252 123.876 39.845 123.785C39.7649 123.694 39.7138 123.582 39.6983 123.462C39.6827 123.342 39.7034 123.22 39.7577 123.112C40.3034 122.112 41.0738 121.25 42.0089 120.595C43.3648 119.701 44.8273 118.978 46.3627 118.444C49.6611 117.142 53.0254 115.442 56.431 114.399C56.5598 114.362 56.6976 114.367 56.8229 114.415C56.9482 114.464 57.054 114.552 57.124 114.666C57.194 114.78 57.2242 114.914 57.21 115.047C57.1958 115.18 57.1379 115.304 57.0453 115.401C55.3425 117.196 50.5722 119.794 49.5951 120.328C47.9068 121.24 46.1668 122.053 44.3837 122.763C44.0332 122.898 41.9017 123.494 40.504 123.958Z" fill="#8FA858"/>
</g>
<defs>
<clipPath id="clip0_136_305">
<rect width="103.523" height="157.481" fill="white" transform="translate(0.41217 0.714844)"/>
</clipPath>
</defs>
</svg>
