<svg width="590" height="29" viewBox="0 0 590 29" fill="none" xmlns="http://www.w3.org/2000/svg">
<g clip-path="url(#clip0_309_19)">
<path d="M307.51 2.61216C304.135 2.61216 301 3.86112 298.838 6.09167C296.522 8.47238 295.43 11.7303 295.676 15.512C296.026 20.8924 300.021 24.7528 305.393 24.8993C310.159 25.0293 313.884 21.6597 314.05 17.0649C314.13 14.8124 313.397 12.6826 312.044 11.2175C311.494 10.615 310.828 10.1303 310.086 9.79268C309.344 9.45501 308.543 9.27129 307.728 9.25252C304.89 9.16096 302.506 11.06 302.309 13.5744C302.127 15.8819 303.524 17.8414 305.484 18.0355C307.125 18.2003 308.401 17.2297 308.804 15.5083C308.835 15.3743 308.812 15.2333 308.74 15.1163C308.668 14.9994 308.552 14.9161 308.419 14.8847C308.285 14.8534 308.145 14.8766 308.028 14.9493C307.912 15.0219 307.829 15.138 307.798 15.2721C307.517 16.4826 306.704 17.1125 305.584 17.0027C304.191 16.8635 303.214 15.3948 303.34 13.6568C303.493 11.6955 305.402 10.2176 307.696 10.2909C308.373 10.3067 309.041 10.4597 309.659 10.7407C310.276 11.0217 310.831 11.4249 311.289 11.9262C312.464 13.1899 313.096 15.0486 313.025 17.0265C312.881 21.0371 309.612 23.9745 305.431 23.8609C300.537 23.7273 297.044 20.3448 296.717 15.4369C296.489 11.9574 297.483 8.97416 299.585 6.80954C301.688 4.64492 304.7 3.51316 308.044 3.65784C313.461 3.88309 318.072 7.47247 322.162 14.6348C325.395 20.3118 329.417 25.5879 336.902 25.8369C339.985 25.91 342.971 24.7568 345.211 22.6285C347.374 20.5499 348.533 17.7993 348.566 14.6787C348.599 11.4886 347.472 8.61705 345.384 6.58978C344.417 5.65657 343.27 4.93297 342.013 4.46389C340.755 3.99481 339.416 3.79026 338.076 3.86294C333.819 4.04607 330.613 7.01464 330.457 10.9263C330.425 11.8128 330.573 12.6965 330.893 13.5234C331.213 14.3502 331.697 15.1029 332.316 15.7354C332.873 16.3224 333.543 16.788 334.286 17.1031C335.029 17.4182 335.829 17.576 336.636 17.5667C337.575 17.5665 338.476 17.194 339.143 16.5302C339.455 16.2058 339.7 15.8218 339.862 15.4009C340.023 14.9801 340.1 14.5309 340.086 14.0799C340.083 13.6814 339.998 13.2879 339.837 12.9237C339.676 12.5595 339.443 12.2324 339.15 11.9629C338.853 11.6917 338.504 11.4847 338.125 11.3546C337.745 11.2245 337.342 11.1741 336.942 11.2065C336.81 11.222 336.689 11.2882 336.604 11.3912C336.519 11.4943 336.476 11.6263 336.486 11.7598C336.495 11.8933 336.555 12.018 336.654 12.108C336.753 12.1981 336.882 12.2464 337.015 12.2431C337.275 12.2211 337.537 12.2528 337.785 12.3363C338.032 12.4197 338.26 12.5532 338.454 12.7284C338.642 12.9039 338.792 13.1161 338.895 13.3519C338.998 13.5878 339.052 13.8424 339.054 14.1C339.064 14.413 339.012 14.725 338.901 15.0175C338.789 15.31 338.62 15.5771 338.405 15.8031C337.928 16.2746 337.285 16.5378 336.616 16.5357C335.951 16.5436 335.292 16.4137 334.679 16.154C334.066 15.8944 333.513 15.5106 333.055 15.0267C332.534 14.495 332.127 13.8625 331.858 13.1676C331.589 12.4728 331.463 11.7301 331.489 10.9849C331.642 7.17946 334.94 5.0533 338.12 4.91778C339.319 4.85177 340.518 5.03373 341.644 5.45239C342.769 5.87105 343.798 6.51749 344.664 7.35161C346.544 9.18293 347.562 11.7834 347.532 14.6769C347.496 18.2589 345.86 20.5756 344.497 21.8886C342.455 23.824 339.734 24.8712 336.928 24.8022C329.95 24.5697 326.133 19.5317 323.05 14.1202C318.776 6.62457 313.879 2.86305 308.079 2.62315C307.889 2.61582 307.697 2.61216 307.51 2.61216Z" fill="#FF9900"/>
<path d="M328.181 4.7071C328.056 4.70741 327.934 4.75367 327.84 4.83724C327.746 4.92081 327.685 5.03598 327.669 5.16126C327.08 9.82197 324.143 11.4811 321.034 13.2392C317.825 15.054 314.506 16.9293 314.182 22.2273C314.177 22.2953 314.186 22.3634 314.208 22.4277C314.23 22.4921 314.265 22.5515 314.31 22.6025C314.355 22.6535 314.409 22.6952 314.47 22.7251C314.531 22.755 314.597 22.7725 314.665 22.7767C314.732 22.7809 314.8 22.7717 314.864 22.7496C314.928 22.7275 314.987 22.6929 315.038 22.6479C315.089 22.6028 315.131 22.5481 315.16 22.487C315.19 22.4258 315.207 22.3594 315.212 22.2914C315.502 17.5575 318.435 15.9001 321.541 14.1439C324.735 12.3382 328.039 10.4703 328.694 5.29129C328.702 5.2238 328.698 5.15525 328.68 5.08959C328.662 5.02393 328.632 4.96245 328.59 4.90867C328.549 4.8549 328.497 4.80988 328.438 4.77623C328.379 4.74258 328.314 4.72095 328.247 4.71259L328.181 4.7071Z" fill="#FF9900"/>
<path d="M310.102 0.62886C309.97 0.634045 309.845 0.689823 309.752 0.784754C309.66 0.879684 309.607 1.00657 309.605 1.13939C309.602 1.27221 309.651 1.40088 309.74 1.49903C309.829 1.59718 309.952 1.65735 310.084 1.66722C315.851 1.87599 320.946 7.14103 323.79 11.9977C326.564 16.7335 330.013 22.6193 336.844 22.5443C340.893 22.4948 343.772 20.4968 345.381 16.6071C345.424 16.482 345.419 16.3448 345.365 16.2237C345.311 16.1025 345.214 16.0065 345.092 15.9553C344.97 15.9041 344.834 15.9015 344.71 15.9481C344.586 15.9947 344.485 16.087 344.427 16.2061C342.968 19.7277 340.481 21.4619 336.831 21.5059H336.701C331.024 21.5059 327.896 16.9587 324.682 11.4684C321.699 6.37554 316.307 0.846786 310.122 0.627028L310.102 0.62886ZM307.475 5.16504C305.4 5.16504 303.365 5.78402 301.822 6.93592C301.004 7.52565 300.329 8.29284 299.847 9.18054C299.365 10.0682 299.088 11.0536 299.036 12.0636C299.036 12.1963 299.086 12.324 299.177 12.4206C299.267 12.5172 299.391 12.5755 299.523 12.5834C299.655 12.5914 299.785 12.5484 299.886 12.4634C299.988 12.3783 300.053 12.2576 300.068 12.1259C300.113 11.2685 300.349 10.4322 300.76 9.67896C301.17 8.92574 301.744 8.27491 302.439 7.77467C304.313 6.37005 307.041 5.86094 309.559 6.4488C314.163 7.52561 317.33 11.7596 319.175 15.1256C322.472 21.1305 325.986 25.5513 332.426 27.6115C332.556 27.6533 332.698 27.6412 332.82 27.578C332.941 27.5149 333.033 27.4057 333.075 27.2745C333.116 27.1434 333.104 27.0011 333.041 26.8788C332.979 26.7565 332.87 26.6644 332.739 26.6226C326.626 24.6668 323.258 20.4108 320.082 14.6238C318.132 11.0747 314.766 6.60079 309.794 5.43791C309.034 5.25949 308.256 5.16795 307.475 5.16504Z" fill="#FF9900"/>
<path d="M356.797 7.24549C356.368 7.24768 355.941 7.29184 355.52 7.37734C354.028 7.68775 352.636 8.36266 351.465 9.34235C349.485 11.0546 348.267 12.5142 347.499 15.3271C347.463 15.4599 347.481 15.6017 347.549 15.7212C347.617 15.8407 347.73 15.9282 347.862 15.9644C347.994 16.0006 348.136 15.9825 348.255 15.9142C348.374 15.8458 348.461 15.7328 348.497 15.6C349.197 13.0361 350.273 11.7432 352.143 10.1298C353.181 9.26873 354.411 8.67359 355.728 8.39555C356.523 8.23623 357.98 8.10804 358.775 9.04018C359.193 9.52548 359.24 10.2122 358.917 11.0803C358.582 11.8937 358.12 12.648 357.548 13.3145C354.084 13.4427 350.406 15.0011 349.569 16.7281C349.431 16.9779 349.368 17.2629 349.389 17.548C349.41 17.833 349.514 18.1057 349.687 18.3323C349.926 18.6454 350.417 18.9897 351.352 18.8487C353.157 18.5795 356.062 16.6109 358.04 14.3437C361.827 14.3565 365.516 16.3453 366.331 18.8286C366.447 19.1826 366.481 19.5588 366.428 19.9279C366.376 20.297 366.24 20.649 366.03 20.9566C365.689 21.4663 365.233 21.8879 364.699 22.1872C361.763 19.9054 357.537 18.7938 355.314 19.096C353.845 19.2956 353.529 20.0556 353.473 20.4914C353.42 20.8961 353.591 21.3027 353.978 21.7001C355.289 23.0443 359.235 24.3408 362.365 23.9947C363.119 23.9149 363.856 23.7223 364.553 23.4234C365.374 24.1032 366.03 24.9626 366.47 25.9359C366.523 26.0627 366.624 26.163 366.751 26.2149C366.878 26.2668 367.02 26.2659 367.146 26.2125C367.272 26.159 367.372 26.0574 367.424 25.93C367.475 25.8026 367.475 25.6598 367.421 25.533C366.98 24.5294 366.335 23.6293 365.527 22.8904C366.075 22.5334 366.544 22.0664 366.904 21.5188C367.195 21.081 367.384 20.5824 367.456 20.0606C367.528 19.5387 367.482 19.0073 367.319 18.5063C366.333 15.4718 362.416 13.5983 358.844 13.3383C359.274 12.7551 359.626 12.1179 359.891 11.4429C360.469 9.88808 360.033 8.91015 359.565 8.36259C358.932 7.6264 357.982 7.24549 356.797 7.24549ZM350.938 17.8433C350.861 17.8515 350.783 17.8431 350.71 17.8188C350.636 17.7945 350.569 17.7548 350.512 17.7023C350.431 17.5961 350.368 17.4533 350.499 17.1822C350.978 16.1951 353.451 14.8015 356.532 14.4352C354.791 16.1713 352.576 17.6181 351.203 17.8232C351.115 17.8363 351.027 17.843 350.938 17.8433ZM361.291 23.0131C358.58 23.0131 355.611 21.8905 354.727 20.9749C354.545 20.7789 354.505 20.6562 354.508 20.6269C354.554 20.2845 355.192 20.1618 355.464 20.1252C357.287 19.8761 360.934 20.8265 363.6 22.689C363.163 22.8282 362.713 22.9233 362.258 22.9729C361.937 23.0043 361.614 23.0177 361.291 23.0131Z" fill="#FF9900"/>
<path d="M282.335 2.61222C282.148 2.61222 281.958 2.61589 281.766 2.62321C275.966 2.86311 271.068 6.62464 266.794 14.1202C263.711 19.5318 259.895 24.5697 252.917 24.8023C250.111 24.8642 247.394 23.8111 245.357 21.8722C243.993 20.5591 242.358 18.2425 242.321 14.6605C242.292 11.7597 243.311 9.15552 245.189 7.33519C246.056 6.50092 247.085 5.85442 248.211 5.43576C249.337 5.0171 250.536 4.83521 251.735 4.90137C254.913 5.03689 258.212 7.16305 258.365 10.9685C258.39 11.7137 258.265 12.4563 257.996 13.1512C257.726 13.846 257.319 14.4786 256.799 15.0103C256.34 15.4939 255.788 15.8775 255.175 16.1371C254.563 16.3967 253.904 16.5268 253.239 16.5193C252.57 16.5218 251.927 16.2585 251.451 15.7867C251.234 15.5612 251.065 15.2941 250.954 15.0015C250.842 14.7089 250.79 14.3967 250.802 14.0836C250.802 13.8258 250.856 13.571 250.959 13.335C251.062 13.099 251.213 12.8869 251.401 12.7119C251.595 12.5367 251.823 12.4032 252.07 12.3198C252.317 12.2363 252.578 12.2046 252.838 12.2266C252.908 12.2348 252.978 12.2287 253.045 12.2087C253.112 12.1888 253.175 12.1553 253.229 12.1105C253.283 12.0656 253.327 12.0103 253.359 11.9477C253.391 11.8852 253.41 11.8168 253.415 11.7467C253.42 11.6766 253.41 11.6062 253.387 11.5398C253.365 11.4734 253.328 11.4123 253.281 11.3603C253.234 11.3083 253.177 11.2664 253.114 11.2371C253.05 11.2079 252.981 11.1919 252.911 11.1901C252.511 11.1576 252.109 11.2079 251.729 11.338C251.349 11.4682 251 11.6752 250.703 11.9465C250.411 12.2163 250.178 12.5434 250.017 12.9075C249.856 13.2717 249.771 13.6651 249.768 14.0635C249.754 14.5146 249.83 14.964 249.992 15.3849C250.155 15.8058 250.399 16.1897 250.712 16.5138C251.379 17.1779 252.28 17.5505 253.219 17.5503C254.026 17.5609 254.826 17.4036 255.569 17.0884C256.312 16.7733 256.982 16.307 257.537 15.719C258.156 15.0863 258.641 14.3337 258.961 13.5069C259.281 12.6801 259.43 11.7965 259.399 10.9099C259.24 6.99823 256.036 4.02783 251.779 3.84653C250.439 3.77359 249.099 3.97801 247.842 4.4471C246.584 4.91619 245.436 5.63993 244.469 6.57337C242.385 8.60064 241.256 11.4721 241.287 14.6623C241.32 17.7755 242.48 20.5335 244.642 22.6121C246.881 24.7484 249.87 25.9084 252.957 25.8388C260.442 25.5898 264.464 20.3083 267.697 14.6367C271.779 7.47437 276.398 3.88498 281.815 3.65973C285.154 3.52422 288.164 4.64132 290.274 6.81144C292.383 8.98155 293.373 11.9593 293.144 15.4388C292.824 20.3394 289.315 23.7218 284.43 23.8628L284.195 23.8628C280.121 23.8628 276.976 20.9602 276.834 17.0247C276.762 15.0469 277.395 13.1789 278.571 11.9245C279.03 11.423 279.584 11.0197 280.201 10.7387C280.818 10.4577 281.486 10.3047 282.163 10.2891C284.459 10.2159 286.357 11.6937 286.519 13.6551C286.654 15.393 285.668 16.8617 284.275 17.0009C283.146 17.1126 282.342 16.4808 282.061 15.2703C282.046 15.2039 282.017 15.1412 281.978 15.0859C281.938 15.0305 281.888 14.9835 281.831 14.9475C281.773 14.9115 281.709 14.8873 281.642 14.8762C281.575 14.8652 281.506 14.8675 281.44 14.883C281.374 14.8985 281.312 14.9269 281.257 14.9667C281.202 15.0064 281.155 15.0566 281.119 15.1145C281.083 15.1724 281.059 15.2369 281.048 15.3041C281.037 15.3714 281.039 15.4402 281.055 15.5065C281.454 17.228 282.729 18.1986 284.377 18.0338C286.335 17.8396 287.73 15.8801 287.549 13.5727C287.353 11.0583 284.969 9.15736 282.13 9.25076C281.316 9.26973 280.515 9.45355 279.773 9.7912C279.031 10.1288 278.365 10.6134 277.815 11.2158C276.454 12.6808 275.72 14.8106 275.8 17.0632C275.964 21.5719 279.55 24.9012 284.187 24.9012L284.453 24.9012C289.825 24.7547 293.82 20.8943 294.17 15.5139C294.416 11.7322 293.324 8.47428 291.01 6.09356C288.846 3.86119 285.71 2.61222 282.335 2.61222Z" fill="#FF9900"/>
<path d="M261.664 4.70732L261.599 4.70732C261.531 4.71547 261.466 4.73693 261.407 4.77049C261.348 4.80404 261.296 4.84902 261.254 4.90282C261.213 4.95662 261.182 5.01818 261.164 5.08395C261.146 5.14972 261.141 5.21839 261.15 5.28601C261.805 10.465 265.109 12.3329 268.303 14.1386C271.403 15.8949 274.342 17.5522 274.632 22.2862C274.632 22.3569 274.647 22.4269 274.675 22.4918C274.704 22.5567 274.745 22.6151 274.796 22.6634C274.848 22.7118 274.908 22.7491 274.975 22.773C275.041 22.797 275.111 22.8071 275.182 22.8027C275.252 22.7984 275.321 22.7796 275.384 22.7476C275.447 22.7156 275.502 22.6711 275.548 22.6168C275.593 22.5624 275.626 22.4994 275.646 22.4315C275.666 22.3636 275.672 22.2923 275.664 22.2221C275.34 16.924 272.017 15.0488 268.81 13.2339C265.71 11.4759 262.766 9.81669 262.177 5.15599C262.159 5.03187 262.098 4.91823 262.004 4.83584C261.91 4.75346 261.789 4.70784 261.664 4.70732Z" fill="#FF9900"/>
<path d="M279.742 0.628736H279.724C273.539 0.853989 268.147 6.37725 265.164 11.4701C261.924 17.0026 258.768 21.5754 253.013 21.5058C249.367 21.4618 246.879 19.7276 245.417 16.2059C245.359 16.0869 245.258 15.9946 245.134 15.948C245.011 15.9014 244.874 15.904 244.752 15.9552C244.63 16.0064 244.533 16.1024 244.479 16.2235C244.425 16.3447 244.42 16.4819 244.464 16.607C246.079 20.4967 248.951 22.4947 253 22.5441H253.143C259.876 22.5441 263.301 16.7004 266.054 11.9976C268.898 7.14091 273.993 1.87586 279.76 1.66709C279.892 1.65723 280.015 1.59705 280.104 1.4989C280.193 1.40075 280.242 1.27209 280.239 1.13927C280.237 1.00645 280.184 0.879559 280.092 0.78463C279.999 0.689699 279.874 0.633921 279.742 0.628736ZM282.364 5.16675C281.581 5.16658 280.8 5.25565 280.037 5.43228C275.063 6.59517 271.697 11.0691 269.75 14.6182C266.574 20.4052 263.204 24.6611 257.09 26.617C257.026 26.6377 256.966 26.6709 256.914 26.7149C256.862 26.7588 256.819 26.8126 256.788 26.8732C256.757 26.9337 256.738 26.9998 256.732 27.0677C256.727 27.1356 256.734 27.204 256.755 27.2689C256.775 27.3339 256.809 27.3941 256.852 27.4462C256.896 27.4982 256.95 27.5411 257.01 27.5724C257.07 27.6037 257.136 27.6228 257.204 27.6285C257.271 27.6343 257.339 27.6266 257.404 27.6059C263.844 25.5457 267.359 21.1249 270.654 15.12C272.501 11.7558 275.668 7.51999 280.271 6.44317C282.789 5.85532 285.516 6.36443 287.393 7.76905C288.087 8.26947 288.661 8.92035 289.071 9.67353C289.482 10.4267 289.718 11.2629 289.763 12.1203C289.772 12.2573 289.835 12.3851 289.937 12.4762C290.04 12.5673 290.174 12.6144 290.31 12.6074C290.378 12.6034 290.444 12.5861 290.505 12.5563C290.566 12.5265 290.621 12.4849 290.666 12.4338C290.711 12.3828 290.746 12.3233 290.768 12.2588C290.79 12.1943 290.799 12.1261 290.795 12.058C290.744 11.048 290.467 10.0626 289.984 9.17492C289.502 8.28722 288.827 7.52003 288.009 6.9303C286.474 5.78389 284.439 5.16492 282.364 5.16492V5.16675Z" fill="#FF9900"/>
<path d="M233.047 7.24549C231.871 7.24549 230.912 7.6264 230.283 8.36259C229.816 8.91199 229.372 9.88808 229.957 11.4429C230.222 12.1179 230.574 12.7551 231.003 13.3383C227.431 13.5983 223.517 15.4718 222.528 18.5063C222.366 19.0073 222.319 19.5387 222.391 20.0606C222.463 20.5824 222.652 21.081 222.944 21.5188C223.305 22.0659 223.773 22.5327 224.321 22.8904C223.513 23.6304 222.868 24.5309 222.426 25.5349C222.373 25.6616 222.372 25.8044 222.424 25.9319C222.476 26.0593 222.575 26.1609 222.702 26.2143C222.828 26.2677 222.97 26.2686 223.097 26.2167C223.224 26.1649 223.325 26.0645 223.378 25.9378C223.818 24.964 224.474 24.1044 225.296 23.4252C225.993 23.7245 226.731 23.9171 227.484 23.9966C230.61 24.3427 234.555 23.0461 235.872 21.7019C236.26 21.3045 236.43 20.898 236.377 20.4933C236.32 20.0574 236.012 19.2974 234.535 19.0978C232.314 18.7956 228.088 19.9072 225.15 22.1891C224.617 21.8897 224.16 21.4681 223.819 20.9584C223.61 20.6505 223.475 20.2985 223.422 19.9296C223.37 19.5606 223.403 19.1846 223.519 18.8304C224.326 16.3471 228.022 14.3583 231.811 14.3455C233.788 16.6127 236.694 18.5814 238.497 18.8506C239.442 18.9916 239.923 18.6473 240.162 18.3323C240.335 18.106 240.439 17.8338 240.461 17.5491C240.482 17.2645 240.42 16.9797 240.282 16.7299C239.446 15.003 235.768 13.4445 232.302 13.3163C231.729 12.6498 231.267 11.8955 230.932 11.0821C230.611 10.2141 230.659 9.52732 231.075 9.04202C231.871 8.10987 233.326 8.23806 234.123 8.39739C235.44 8.67577 236.669 9.2709 237.706 10.1317C239.571 11.7432 240.647 13.0325 241.353 15.6018C241.371 15.6676 241.401 15.7292 241.443 15.7831C241.484 15.837 241.536 15.8822 241.595 15.916C241.654 15.9498 241.719 15.9717 241.786 15.9803C241.853 15.9889 241.922 15.9841 241.987 15.9662C242.053 15.9483 242.114 15.9176 242.168 15.8759C242.221 15.8342 242.266 15.7822 242.3 15.7231C242.334 15.6639 242.356 15.5986 242.364 15.531C242.373 15.4634 242.368 15.3947 242.35 15.3289C241.583 12.516 240.365 11.0546 238.386 9.34419C237.215 8.36448 235.822 7.68959 234.329 7.37918C233.907 7.2927 233.478 7.24793 233.047 7.24549ZM238.917 17.8433C238.828 17.8425 238.74 17.8351 238.652 17.8214C237.278 17.6163 235.064 16.1732 233.321 14.4334C236.404 14.7997 238.877 16.1951 239.354 17.1804C239.486 17.4514 239.422 17.5943 239.342 17.7005C239.285 17.7537 239.218 17.794 239.145 17.8186C239.071 17.8433 238.994 17.8517 238.917 17.8433ZM226.265 22.6798C228.938 20.8266 232.571 19.8761 234.398 20.116C234.67 20.1526 235.31 20.2753 235.354 20.6178C235.354 20.6489 235.327 20.7698 235.135 20.9657C234.136 21.9894 230.533 23.2769 227.605 22.9545C227.147 22.9088 226.695 22.8167 226.255 22.6798H226.265Z" fill="#FF9900"/>
</g>
<rect width="588.958" height="0.84378" transform="matrix(1 0 0 -1 0.442627 28.4719)" fill="#FF9900"/>
<defs>
<clipPath id="clip0_309_19">
<rect width="145.13" height="27.001" fill="white" transform="matrix(1 0 0 -1 222.357 27.6279)"/>
</clipPath>
</defs>
</svg>
